<svg version="1.1" class="clearos-svg clearfoundation app-vendor-clearfoundation app-free app-category-system app-sub-category-base" viewBox="0 0 400 400" preserveAspectRatio="xMinYMin" xmlns="http://www.w3.org/2000/svg" xmlns:xlink= "http://www.w3.org/1999/xlink">
<g transform="translate(0,1.3329999)" display="none">
	<g display="inline">
		<path d="M431.984,71.004h33.074l42.445,165.935c5.829,23.278,10.082,44.354,12.758,63.213
			c3.279-22.418,8.139-44.35,14.579-65.783l47.737-163.36h32.802l50.611,165.091c5.947,18.916,10.974,40.271,15.063,64.063
			c2.355-17.393,6.816-38.59,13.391-63.578L737.213,71.01h33.076l-71.85,268.657h-30.875l-53.406-180.144
			c-2.361-7.982-5.326-17.987-8.897-30.021c-3.563-12.034-5.424-19.282-5.536-21.74c-2.691,16.171-6.975,33.876-12.852,53.108
			l-52.494,178.801h-30.834L431.984,71.004z"/>
	</g>
</g>
<g transform="translate(0,1.3329999)" display="none">
	<g display="inline">
		<path d="M500.803,339.665V71.004h35.279l146.442,224.558h1.452c-0.244-3.429-0.793-14.086-1.635-31.971
			c-0.603-13.966-0.91-24.811-0.91-32.519c0-2.205,0-4.163,0-5.868V71.02h28.854v268.657h-35.284l-146.82-225.491h-1.471
			c1.958,26.463,2.939,50.718,2.939,72.771v152.708H500.803L500.803,339.665z"/>
	</g>
</g>
<g transform="translate(0,1.3329999)" display="none">
	<g display="inline">
		<path d="M520.766,333.886v-29.961c11.024,4.66,23.029,8.35,36.021,11.037c12.982,2.693,25.847,4.05,38.593,4.05
			c20.862,0,36.57-3.952,47.123-11.874c10.561-7.918,15.837-18.916,15.837-33.047c0-9.324-1.871-16.953-5.613-22.913
			c-3.745-5.952-10.008-11.448-18.779-16.474c-8.777-5.026-22.119-10.742-40.039-17.121c-25.036-8.958-42.856-19.574-53.451-31.845
			c-10.599-12.266-15.897-28.276-15.897-48.037c0-20.724,7.752-37.221,23.265-49.481c15.51-12.261,36.021-18.392,61.547-18.392
			c26.635,0,51.132,4.9,73.486,14.7l-9.625,27.221c-22.146-9.329-43.682-13.989-64.6-13.989c-16.569,0-29.521,3.563-38.848,10.676
			c-9.323,7.118-13.986,16.995-13.986,29.637c0,9.324,1.716,16.963,5.152,22.918c3.434,5.953,9.231,11.411,17.396,16.381
			c8.159,4.971,20.647,10.46,37.456,16.474c28.229,10.065,47.579,20.863,58.059,32.397c10.475,11.539,15.714,26.511,15.714,44.91
			c0,23.556-8.557,41.927-25.658,55.101c-17.104,13.173-40.321,19.772-69.646,19.772
			C562.413,346.036,537.916,341.985,520.766,333.886L520.766,333.886z"/>
	</g>
</g>
<g transform="translate(0,1.3329999)" display="none">
	<g display="inline">
		<path d="M492.218,71.009h33.077l61.742,173.833c7.104,19.97,12.738,39.392,16.908,58.259
			c4.41-19.851,10.154-39.632,17.271-59.354l61.374-172.74h33.623l-96.844,268.659h-30.861L492.218,71.009z"/>
	</g>
</g>
<g transform="translate(0,1.3329999)" display="none">
	<g display="inline">
		<path d="M504.708,208.841c0-27.668,5.116-51.908,15.354-72.721c10.239-20.811,25.125-36.85,44.652-48.113
			c19.528-11.26,42.532-16.895,68.989-16.895c28.177,0,52.8,5.145,73.868,15.437l-13.228,26.816
			c-20.339-9.547-40.676-14.321-61.016-14.321c-29.531,0-52.84,9.826-69.918,29.471c-17.09,19.645-25.634,46.542-25.634,80.698
			c0,35.144,8.235,62.272,24.716,81.429c16.477,19.155,39.968,28.731,70.475,28.731c18.743,0,40.119-3.365,64.127-10.095v27.479
			c-18.621,7.031-41.592,10.546-68.906,10.546c-39.582,0-70.047-12.015-91.423-36.037
			C515.395,287.237,504.708,253.093,504.708,208.841z"/>
	</g>
</g>
<path fill="#686868" d="M392.548,273.622v11.327H252.819v-22.648h116.724c-2.552-38.322-17.882-73.189-41.733-100.448
	l-18.264,18.261l-16.012-16.018l18.188-18.175c-27.262-23.852-62.07-39.093-100.395-41.654v67.42h-22.655v-67.414
	c-38.303,2.562-73.145,17.802-100.354,41.654l18.038,18.035l-16.018,16.017l-18.127-18.127
	C48.359,189.104,32.995,223.979,30.484,262.3h117.142v22.655H7.452v-11.327C7.452,167.449,93.827,81.074,200,81.074
	C306.186,81.074,392.548,167.449,392.548,273.622z M245.304,273.622c0,24.997-20.307,45.304-45.304,45.304
	c-24.984,0-45.304-20.307-45.304-45.304c0-14.604,7.045-27.408,17.761-35.72l-47.162-82.232l19.632-11.264l48.504,84.574
	c2.157-0.318,4.304-0.668,6.567-0.668C224.997,228.318,245.304,248.625,245.304,273.622z M222.655,273.622
	c0-12.479-10.177-22.661-22.655-22.661s-22.655,10.182-22.655,22.661c0,12.474,10.184,22.647,22.655,22.647
	C212.479,296.271,222.655,286.096,222.655,273.622z"/>
</svg>
